# xmcd
#
# Track frame offsets: 
#        150
#        23066
#        43077
#        55883
#        68309
#        95216
#        113293
#        125321
#        157275
#        175112
#        194046
#        208421
#        222210
#        246072
#        265053
#
# Disc length: 3799 seconds
#
# Revision: 0
# Processed by: cddbd v1.5.2PL0 Copyright (c) Steve Scherf et al.
# Submitted via: ExactAudioCopy v0.99pb4
#
DISCID=d80ed50f
DTITLE=Lazy bones - Lazy Bones
DYEAR=2008
DGENRE=Blues
TTITLE0=Weary Blues
TTITLE1=Saint James Infirmary
TTITLE2=Nobody In Town Can Bake A Sweet Jelly Roll Like Mine
TTITLE3=Can't Help Lovin' That Man
TTITLE4=After You've Gone
TTITLE5=He May Be Your Man
TTITLE6=How Come You Do Me Like You Do?
TTITLE7=Friendless Blues
TTITLE8=Sam Jones Blues
TTITLE9=Second Hand Rose
TTITLE10=Misery And The Blues
TTITLE11=Evil Blues
TTITLE12=My Melancholy Baby
TTITLE13=Old Man River
TTITLE14=Nobody Knows You When You're Down And Out
EXTD=
EXTT0=
EXTT1=
EXTT2=
EXTT3=
EXTT4=
EXTT5=
EXTT6=
EXTT7=
EXTT8=
EXTT9=
EXTT10=
EXTT11=
EXTT12=
EXTT13=
EXTT14=
PLAYORDER=
